<?xml version="1.0" encoding="UTF-8"?>
<!DOCTYPE svg PUBLIC "-//W3C//DTD SVG 1.1//EN" "http://www.w3.org/Graphics/SVG/1.1/DTD/svg11.dtd">
<svg xmlns="http://www.w3.org/2000/svg" version="1.1" width="1440px" height="1440px" style="shape-rendering:geometricPrecision; text-rendering:geometricPrecision; image-rendering:optimizeQuality; fill-rule:evenodd; clip-rule:evenodd" xmlns:xlink="http://www.w3.org/1999/xlink">
<g><path style="opacity:1" fill="#fefffe" d="M 327.5,135.5 C 330.32,135.248 332.986,135.748 335.5,137C 343.97,144.469 352.137,152.302 360,160.5C 367.048,169.631 371.381,179.964 373,191.5C 376.052,210.151 376.052,228.817 373,247.5C 371.574,250.861 369.407,251.361 366.5,249C 352.412,238.25 338.912,226.75 326,214.5C 318.336,201.544 315.669,187.544 318,172.5C 318.803,163.012 320.47,153.679 323,144.5C 323.656,141.004 325.156,138.004 327.5,135.5 Z"/></g>
<g><path style="opacity:1" fill="#fefffe" d="M 440.5,137.5 C 441.5,137.5 442.5,137.5 443.5,137.5C 442.69,150.043 447.357,159.876 457.5,167C 467.836,172.444 478.502,177.111 489.5,181C 501.411,187.368 505.578,197.201 502,210.5C 498.972,219.557 494.639,227.89 489,235.5C 478.752,245.816 468.419,256.15 458,266.5C 448,277.507 440,289.84 434,303.5C 429.862,319.285 432.862,333.619 443,346.5C 451.6,357.102 460.933,367.102 471,376.5C 480.469,391.365 485.136,407.698 485,425.5C 485.5,441.004 485.333,456.504 484.5,472C 484.667,477.167 484.833,482.333 485,487.5C 485.5,488 486,488.5 486.5,489C 496.62,489.291 506.454,491.124 516,494.5C 516.5,494.167 517,493.833 517.5,493.5C 502.914,477.583 495.914,458.75 496.5,437C 496.727,415.158 501.393,394.324 510.5,374.5C 511.325,373.614 512.325,373.281 513.5,373.5C 495.137,442.469 520.303,485.802 589,503.5C 589.772,503.355 590.439,503.022 591,502.5C 598.372,477.052 606.538,451.886 615.5,427C 615.241,425.739 614.574,424.739 613.5,424C 596.294,414.435 585.461,399.935 581,380.5C 579.893,375.523 578.893,370.523 578,365.5C 576.45,347.531 576.117,329.531 577,311.5C 577.977,301.591 580.81,292.257 585.5,283.5C 586.689,282.571 588.022,282.238 589.5,282.5C 589.127,301.269 597.46,314.435 614.5,322C 628.49,326.886 642.157,332.552 655.5,339C 659.818,342.315 662.985,346.481 665,351.5C 666.085,357.85 667.252,364.184 668.5,370.5C 677.139,366.62 686.139,363.954 695.5,362.5C 700.624,363.363 701.791,366.03 699,370.5C 688.231,384.387 685.731,399.554 691.5,416C 696.768,417.654 702.102,418.654 707.5,419C 704.72,417.188 702.22,415.021 700,412.5C 699.517,411.552 699.351,410.552 699.5,409.5C 702.016,409.755 704.35,410.589 706.5,412C 711.5,415.667 716.5,419.333 721.5,423C 727.727,425.143 734.06,426.476 740.5,427C 731.052,413.993 726.886,399.493 728,383.5C 731.177,368.452 731.511,353.452 729,338.5C 724.924,326.757 717.091,318.59 705.5,314C 698.362,311.065 691.029,308.732 683.5,307C 669.47,304.83 655.47,302.496 641.5,300C 631.335,297.005 622.501,291.838 615,284.5C 611.29,278.488 610.624,272.155 613,265.5C 616.497,258.502 620.497,251.835 625,245.5C 627.112,241.71 628.778,237.71 630,233.5C 630.667,229.833 630.667,226.167 630,222.5C 627.911,218.332 626.411,213.998 625.5,209.5C 628.263,209.744 630.429,211.077 632,213.5C 638.708,221.664 641.375,230.997 640,241.5C 636.788,248.423 634.288,255.589 632.5,263C 635.647,276.141 643.98,283.808 657.5,286C 659.764,286.236 661.931,286.736 664,287.5C 685.795,282.744 707.295,283.911 728.5,291C 747.102,299.012 757.268,313.178 759,333.5C 757.731,344.605 758.397,355.605 761,366.5C 764.416,375.626 770.916,379.126 780.5,377C 786.254,374.698 790.088,370.531 792,364.5C 794.596,355.723 793.596,347.39 789,339.5C 784.101,335.301 778.934,331.468 773.5,328C 760.135,315.921 757.968,302.087 767,286.5C 776,278.833 785,271.167 794,263.5C 801.715,251.468 799.548,241.635 787.5,234C 782.681,232.313 779.014,229.48 776.5,225.5C 789.584,227.073 799.751,233.406 807,244.5C 812.054,251.942 816.054,259.942 819,268.5C 819.667,272.5 819.667,276.5 819,280.5C 813.849,288.99 808.682,297.49 803.5,306C 807.19,314.021 813.19,319.687 821.5,323C 835.963,334.634 839.796,349.134 833,366.5C 822.632,376.536 811.966,386.203 801,395.5C 796.88,400.988 796.546,406.655 800,412.5C 810.819,425.077 824.485,432.41 841,434.5C 859.752,432.77 867.418,422.77 864,404.5C 861.167,398.83 857.834,393.497 854,388.5C 851.503,374.992 856.67,365.825 869.5,361C 873.751,359.805 878.085,359.305 882.5,359.5C 882.67,360.822 882.337,361.989 881.5,363C 868.693,367.43 865.859,375.263 873,386.5C 887.858,399.219 896.691,415.219 899.5,434.5C 899.238,444.797 895.238,453.297 887.5,460C 908.141,464.993 928.808,469.993 949.5,475C 951.441,475.743 953.274,475.576 955,474.5C 957.433,448.125 951.433,423.791 937,401.5C 920.4,386.975 909.4,368.975 904,347.5C 896.76,324.742 895.76,301.742 901,278.5C 904.346,268.305 909.846,259.471 917.5,252C 919.134,251.506 920.801,251.34 922.5,251.5C 917.764,273.734 918.597,295.734 925,317.5C 926.806,322.446 929.139,327.112 932,331.5C 947.094,346.37 959.761,363.037 970,381.5C 977.913,397.241 982.579,413.907 984,431.5C 987.106,421.37 988.106,411.037 987,400.5C 983.198,391.093 980.198,381.427 978,371.5C 977.333,365.167 977.333,358.833 978,352.5C 981.519,341.649 989.019,335.982 1000.5,335.5C 1000.72,336.675 1000.39,337.675 999.5,338.5C 989.495,345.344 986.329,354.677 990,366.5C 991.136,370.243 992.47,373.91 994,377.5C 1001.45,390.062 1008.11,403.062 1014,416.5C 1022.01,441.185 1021.17,465.518 1011.5,489.5C 1039.1,494.4 1066.43,500.567 1093.5,508C 1110.52,513.756 1124.68,523.589 1136,537.5C 1174.67,587.5 1213.33,637.5 1252,687.5C 1257.13,695.472 1258.8,704.138 1257,713.5C 1207.82,875.202 1158.49,1036.87 1109,1198.5C 1098.52,1224.83 1079.35,1234.33 1051.5,1227C 893.278,1189.94 735.278,1151.94 577.5,1113C 561.041,1108.21 549.207,1098.04 542,1082.5C 526.863,1042.09 511.53,1001.76 496,961.5C 488.914,956.371 481.414,951.871 473.5,948C 456.48,935.969 444.313,920.136 437,900.5C 433.693,891.273 430.693,881.939 428,872.5C 424.45,854.536 421.117,836.536 418,818.5C 403.634,777.807 375.467,751.974 333.5,741C 331.254,739.961 329.087,738.794 327,737.5C 325.222,731.944 327.055,728.11 332.5,726C 351.232,721.079 369.565,722.413 387.5,730C 399.408,735.416 410.408,742.249 420.5,750.5C 418.486,737.967 414.32,725.967 408,714.5C 401.076,705.45 392.242,698.95 381.5,695C 371.69,691.397 361.69,688.397 351.5,686C 333.857,683.199 316.357,679.699 299,675.5C 255.185,662.352 228.851,633.352 220,588.5C 218.263,575.125 216.263,561.792 214,548.5C 211.83,536.644 205.997,527.144 196.5,520C 191.37,517.92 186.037,517.087 180.5,517.5C 180.137,515.089 181.137,513.589 183.5,513C 195.042,508.319 205.375,510.152 214.5,518.5C 219.997,524.82 224.497,531.82 228,539.5C 230.977,548.074 233.643,556.741 236,565.5C 242.199,577.507 250.699,586.84 261.5,593.5C 244.556,566.902 236.556,537.736 237.5,506C 237.739,492.775 238.739,479.608 240.5,466.5C 239.229,449.853 234.062,434.52 225,420.5C 216.679,408.201 207.179,396.868 196.5,386.5C 195.05,385.15 194.383,383.484 194.5,381.5C 212.69,381.929 228.357,388.429 241.5,401C 268.629,430.684 283.962,465.684 287.5,506C 282.768,526.424 283.602,546.591 290,566.5C 294.528,578.555 299.862,590.222 306,601.5C 319.314,617.499 335.814,628.665 355.5,635C 341.374,605.487 337.707,574.653 344.5,542.5C 335.221,529.4 330.887,514.733 331.5,498.5C 332.188,488.82 332.688,479.153 333,469.5C 331.225,461.234 326.058,457.234 317.5,457.5C 313.466,458.04 309.466,458.707 305.5,459.5C 305.238,458.022 305.571,456.689 306.5,455.5C 317.723,447.35 329.723,445.85 342.5,451C 346.958,453.74 350.125,457.573 352,462.5C 352.829,469.835 353.496,477.169 354,484.5C 354.973,489.786 357.473,494.12 361.5,497.5C 363.882,492.915 367.548,490.748 372.5,491C 373.333,491.833 374.167,492.667 375,493.5C 375.333,496.833 375.667,500.167 376,503.5C 389.037,503.205 399.37,497.538 407,486.5C 414.257,475.23 418.423,462.897 419.5,449.5C 419.517,442.37 416.184,437.537 409.5,435C 404.292,433.358 398.959,432.358 393.5,432C 381.743,431.885 370.076,430.885 358.5,429C 344.002,422.2 336.336,410.7 335.5,394.5C 336.799,383.766 339.632,373.433 344,363.5C 345.735,355.802 342.902,350.635 335.5,348C 326.624,346.369 318.29,343.369 310.5,339C 303.815,332.64 299.982,324.807 299,315.5C 297.026,303.494 297.026,291.494 299,279.5C 301.158,271.679 304.992,264.845 310.5,259C 311.448,258.517 312.448,258.351 313.5,258.5C 310.915,265.755 308.415,273.088 306,280.5C 303.769,293.946 309.269,302.446 322.5,306C 334.119,307.221 345.785,307.888 357.5,308C 379.426,312.667 388.926,326.167 386,348.5C 383.416,356.915 381.249,365.415 379.5,374C 381.015,384.023 385.681,392.356 393.5,399C 402.234,404.94 410.901,404.94 419.5,399C 425.339,393.137 426.839,386.303 424,378.5C 419.151,368.128 412.818,358.795 405,350.5C 387.853,322.191 390.519,295.858 413,271.5C 426.218,257.951 441.384,247.117 458.5,239C 469.069,230.696 475.069,219.862 476.5,206.5C 475.746,199.492 472.746,193.658 467.5,189C 444.159,179.488 435.159,162.321 440.5,137.5 Z M 592.5,334.5 C 607.472,343.989 622.472,353.489 637.5,363C 642.97,367.464 647.303,372.797 650.5,379C 645.211,382.62 640.211,386.62 635.5,391C 634.5,391.667 633.5,391.667 632.5,391C 622.667,382.5 613.5,373.333 605,363.5C 599.187,354.54 595.02,344.874 592.5,334.5 Z M 671.5,451.5 C 678.284,451.357 684.951,452.19 691.5,454C 813.377,482.303 935.377,509.97 1057.5,537C 1073.22,540.126 1087.89,545.793 1101.5,554C 1105.97,557.465 1110.13,561.298 1114,565.5C 1131.76,589.346 1149.76,613.013 1168,636.5C 1170.33,640.5 1172.67,644.5 1175,648.5C 1175.68,653.321 1173.51,655.321 1168.5,654.5C 1025,620.626 881.671,586.126 738.5,551C 727.902,546.397 719.069,539.563 712,530.5C 698.333,510.5 684.667,490.5 671,470.5C 668.232,466.533 666.898,462.2 667,457.5C 667.804,454.854 669.304,452.854 671.5,451.5 Z M 557.5,521.5 C 565.617,524.474 573.451,528.141 581,532.5C 581.032,536.742 580.032,540.742 578,544.5C 571.701,536.367 564.868,528.7 557.5,521.5 Z M 403.5,552.5 C 416.966,552.233 430.3,553.4 443.5,556C 468.367,563.557 479.867,580.39 478,606.5C 465.515,611.827 453.015,611.66 440.5,606C 415.015,596.013 397.015,578.513 386.5,553.5C 392.358,553.822 398.025,553.489 403.5,552.5 Z M 721.5,597.5 C 726.179,597.334 730.845,597.501 735.5,598C 883.102,633.921 1030.77,669.587 1178.5,705C 1201.35,709.182 1208.85,722.348 1201,744.5C 1160.33,877.844 1119.66,1011.18 1079,1144.5C 1076.73,1154.89 1071.56,1163.39 1063.5,1170C 1058.73,1172.87 1053.57,1174.04 1048,1173.5C 1040.7,1173.22 1033.53,1172.05 1026.5,1170C 886.88,1135.85 747.213,1101.85 607.5,1068C 597.258,1066.13 588.758,1061.3 582,1053.5C 576.943,1044.49 576.277,1035.15 580,1025.5C 621.667,888.833 663.333,752.167 705,615.5C 706.746,611.673 708.746,608.007 711,604.5C 714.308,601.771 717.808,599.438 721.5,597.5 Z"/></g>
<g><path style="opacity:1" fill="#fefffe" d="M 910.5,146.5 C 951.77,155.974 970.27,181.974 966,224.5C 963.853,235.459 959.52,245.459 953,254.5C 951.205,259.013 950.038,263.68 949.5,268.5C 951.397,279.089 954.063,289.422 957.5,299.5C 951.604,296.773 947.104,292.44 944,286.5C 937.932,274.171 935.932,261.171 938,247.5C 949.808,210.394 941.475,178.727 913,152.5C 911.441,150.783 910.608,148.783 910.5,146.5 Z"/></g>
<g><path style="opacity:1" fill="#fefffe" d="M 526.5,179.5 C 528.783,179.608 530.783,180.441 532.5,182C 544.809,191.127 553.309,202.96 558,217.5C 558.667,223.833 558.667,230.167 558,236.5C 552.391,251.328 546.391,265.994 540,280.5C 534.877,293.252 533.877,306.252 537,319.5C 539.808,326.104 542.308,332.771 544.5,339.5C 529.49,333.208 517.324,323.208 508,309.5C 501.986,299.298 500.986,288.632 505,277.5C 511.54,264.972 518.873,252.972 527,241.5C 531.911,233.433 535.244,224.766 537,215.5C 537.302,203.738 533.969,193.071 527,183.5C 526.51,182.207 526.343,180.873 526.5,179.5 Z"/></g>
<g><path style="opacity:1" fill="#fefffe" d="M 713.5,180.5 C 716.119,180.232 718.619,180.565 721,181.5C 725.615,188.45 730.615,195.116 736,201.5C 737.941,205.048 739.607,208.714 741,212.5C 744.129,232.896 742.462,252.896 736,272.5C 735.481,273.516 734.647,274.182 733.5,274.5C 730.594,273.103 728.094,271.103 726,268.5C 718.288,259.79 710.955,250.79 704,241.5C 700.094,231.43 699.427,221.097 702,210.5C 704.468,199.911 708.301,189.911 713.5,180.5 Z"/></g>
<g><path style="opacity:1" fill="#fefffe" d="M 844.5,262.5 C 847.652,261.959 850.152,262.959 852,265.5C 857.355,272.206 861.688,279.54 865,287.5C 867.039,302.116 865.705,316.449 861,330.5C 860.735,332.651 859.735,334.318 858,335.5C 855.049,333.553 852.382,331.219 850,328.5C 846.38,323.211 842.38,318.211 838,313.5C 833.207,304.334 832.207,294.667 835,284.5C 837.306,276.733 840.473,269.399 844.5,262.5 Z"/></g>
<g><path style="opacity:1" fill="#fefffe" d="M 130.5,278.5 C 132.948,278.085 134.281,279.085 134.5,281.5C 126.776,314.742 133.609,344.409 155,370.5C 163.667,378.5 172.333,386.5 181,394.5C 195.852,411.243 201.019,430.576 196.5,452.5C 195.178,452.67 194.011,452.337 193,451.5C 190.166,438.511 185.166,426.511 178,415.5C 169.476,408.653 159.976,403.486 149.5,400C 116.357,377.879 104.19,347.379 113,308.5C 117.065,297.356 122.899,287.356 130.5,278.5 Z"/></g>
<g><path style="opacity:1" fill="#fefffe" d="M 251.5,326.5 C 253.635,326.147 254.968,326.98 255.5,329C 253.431,342.204 257.764,352.871 268.5,361C 279,367.082 289.334,373.416 299.5,380C 303.104,382.708 305.604,386.208 307,390.5C 308.809,405.408 305.476,419.075 297,431.5C 295.989,432.337 294.822,432.67 293.5,432.5C 294.252,414.838 287.586,400.671 273.5,390C 265.371,383.54 257.537,376.706 250,369.5C 245.807,361.666 244.474,353.333 246,344.5C 247.337,338.325 249.17,332.325 251.5,326.5 Z"/></g>
<g><path style="opacity:1" fill="#fefefe" d="M 776.5,693.5 C 782.176,693.334 787.843,693.501 793.5,694C 825.379,700.886 857.045,708.553 888.5,717C 890,718.5 891.5,720 893,721.5C 917.397,803.36 941.397,885.36 965,967.5C 967.267,968.935 969.267,968.602 971,966.5C 990.118,905.363 1008.62,844.029 1026.5,782.5C 1025.69,781.186 1024.69,780.019 1023.5,779C 1014.56,775.531 1005.9,771.531 997.5,767C 995.009,764.032 994.843,760.865 997,757.5C 1003.84,748.947 1012.67,746.113 1023.5,749C 1052.94,755.619 1082.11,763.119 1111,771.5C 1113.62,784.229 1108.28,790.229 1095,789.5C 1088.66,789.539 1082.49,788.539 1076.5,786.5C 1074.8,787.364 1073.64,788.697 1073,790.5C 1043.2,888.238 1013.2,985.905 983,1083.5C 979.736,1087.38 975.57,1089.55 970.5,1090C 954.89,1092.07 939.556,1090.73 924.5,1086C 913.856,1080.35 906.356,1071.85 902,1060.5C 877.224,975.062 853.224,889.395 830,803.5C 829.652,799.339 827.652,798.005 824,799.5C 804.507,866.974 784.007,934.14 762.5,1001C 772.903,1008.72 783.903,1015.72 795.5,1022C 797.993,1025.31 798.159,1028.81 796,1032.5C 793.331,1035.16 790.164,1037 786.5,1038C 780.833,1038.67 775.167,1038.67 769.5,1038C 740.086,1031.38 710.752,1024.38 681.5,1017C 670.22,1014.64 668.553,1009.31 676.5,1001C 686.091,997.873 695.758,997.707 705.5,1000.5C 707.614,999.966 709.448,998.966 711,997.5C 712.725,994.326 714.058,990.993 715,987.5C 740.865,902.237 766.532,816.904 792,731.5C 792.798,729.741 792.631,728.074 791.5,726.5C 782.295,723.154 773.295,719.32 764.5,715C 761.847,710.236 762.347,705.736 766,701.5C 768.94,697.963 772.44,695.297 776.5,693.5 Z"/></g>
</svg>
